<svg xmlns="http://www.w3.org/2000/svg" xmlns:cc="http://web.resource.org/cc/" xmlns:svg="http://www.w3.org/2000/svg" xmlns:xlink="http://www.w3.org/1999/xlink" id="svg2254" width="48" height="48" version="1.0"><metadata id="metadata2259"/><defs id="defs2257"><linearGradient id="linearGradient4373"><stop style="stop-color:#8ea6d6;stop-opacity:.73762375" id="stop4375" offset="0"/><stop style="stop-color:#bbc9e6;stop-opacity:1" id="stop4377" offset="1"/></linearGradient><linearGradient id="linearGradient4035"><stop style="stop-color:#7474bb;stop-opacity:1" id="stop4037" offset="0"/><stop style="stop-color:#070553;stop-opacity:1" id="stop4039" offset="1"/></linearGradient><linearGradient id="linearGradient4003"><stop style="stop-color:#494991;stop-opacity:1" id="stop4005" offset="0"/><stop style="stop-color:#695ae8;stop-opacity:1" id="stop4007" offset="1"/></linearGradient><linearGradient id="linearGradient3987"><stop style="stop-color:#414083;stop-opacity:1" id="stop3989" offset="0"/><stop style="stop-color:#5649b9;stop-opacity:1" id="stop3991" offset="1"/></linearGradient><linearGradient id="XMLID_8_" x1="36.249" x2="92.749" y1="18.119" y2="18.119" gradientTransform="translate(-142.55625,-33.100248)" gradientUnits="userSpaceOnUse"><stop style="stop-color:#fee8bd" id="stop264" offset="0"/><stop style="stop-color:#feebc6" id="stop266" offset=".048"/><stop style="stop-color:#fff6e5" id="stop268" offset=".233"/><stop style="stop-color:#fffdf8" id="stop270" offset=".391"/><stop style="stop-color:#fff" id="stop272" offset=".5"/><stop style="stop-color:#fffdf9" id="stop274" offset=".609"/><stop style="stop-color:#fff7e7" id="stop276" offset=".759"/><stop style="stop-color:#feedcb" id="stop278" offset=".931"/><stop style="stop-color:#fee8bd" id="stop280" offset="1"/></linearGradient><linearGradient id="XMLID_7_" x1="45.416" x2="83.335" y1="107.018" y2="107.018" gradientTransform="translate(-142.55625,-33.100248)" gradientUnits="userSpaceOnUse"><stop style="stop-color:#a86e45" id="stop205" offset="0"/><stop style="stop-color:#e8a06c" id="stop207" offset=".112"/><stop style="stop-color:#e59e6b" id="stop209" offset=".161"/><stop style="stop-color:#da9969" id="stop211" offset=".201"/><stop style="stop-color:#c99066" id="stop213" offset=".239"/><stop style="stop-color:#b18461" id="stop215" offset=".274"/><stop style="stop-color:#92745a" id="stop217" offset=".308"/><stop style="stop-color:#786755" id="stop219" offset=".332"/><stop style="stop-color:#b5aca2" id="stop221" offset=".407"/><stop style="stop-color:#eae8e5" id="stop223" offset=".478"/><stop style="stop-color:#fff" id="stop225" offset=".511"/><stop style="stop-color:#fdfcfc" id="stop227" offset=".538"/><stop style="stop-color:#f5f3f2" id="stop229" offset=".559"/><stop style="stop-color:#e8e4e1" id="stop231" offset=".578"/><stop style="stop-color:#d6cec9" id="stop233" offset=".597"/><stop style="stop-color:#bfb3aa" id="stop235" offset=".614"/><stop style="stop-color:#a39185" id="stop237" offset=".631"/><stop style="stop-color:#816959" id="stop239" offset=".647"/><stop style="stop-color:#785e4c" id="stop241" offset=".652"/><stop style="stop-color:#83654f" id="stop243" offset=".671"/><stop style="stop-color:#a87958" id="stop245" offset=".741"/><stop style="stop-color:#c3895f" id="stop247" offset=".807"/><stop style="stop-color:#d39263" id="stop249" offset=".865"/><stop style="stop-color:#d99564" id="stop251" offset=".91"/><stop style="stop-color:#c48557" id="stop253" offset=".928"/><stop style="stop-color:#aa7045" id="stop255" offset=".956"/><stop style="stop-color:#9a633b" id="stop257" offset=".981"/><stop style="stop-color:#945f37" id="stop259" offset="1"/></linearGradient><linearGradient id="XMLID_6_" x1="-34.508" x2="-20.925" y1="-100.624" y2="-100.624" gradientTransform="matrix(2.7917,-0.3987,0,2.7907,-0.8029473,335.99965)" gradientUnits="userSpaceOnUse"><stop style="stop-color:#a86e45" id="stop146" offset="0"/><stop style="stop-color:#e8a06c" id="stop148" offset=".112"/><stop style="stop-color:#e59e6b" id="stop150" offset=".161"/><stop style="stop-color:#da9969" id="stop152" offset=".201"/><stop style="stop-color:#c99066" id="stop154" offset=".239"/><stop style="stop-color:#b18461" id="stop156" offset=".274"/><stop style="stop-color:#92745a" id="stop158" offset=".308"/><stop style="stop-color:#786755" id="stop160" offset=".332"/><stop style="stop-color:#b5aca2" id="stop162" offset=".407"/><stop style="stop-color:#eae8e5" id="stop164" offset=".478"/><stop style="stop-color:#fff" id="stop166" offset=".511"/><stop style="stop-color:#fdfcfc" id="stop168" offset=".538"/><stop style="stop-color:#f5f3f2" id="stop170" offset=".559"/><stop style="stop-color:#e8e4e1" id="stop172" offset=".578"/><stop style="stop-color:#d6cec9" id="stop174" offset=".597"/><stop style="stop-color:#bfb3aa" id="stop176" offset=".614"/><stop style="stop-color:#a39185" id="stop178" offset=".631"/><stop style="stop-color:#816959" id="stop180" offset=".647"/><stop style="stop-color:#785e4c" id="stop182" offset=".652"/><stop style="stop-color:#83654f" id="stop184" offset=".671"/><stop style="stop-color:#a87958" id="stop186" offset=".741"/><stop style="stop-color:#c3895f" id="stop188" offset=".807"/><stop style="stop-color:#d39263" id="stop190" offset=".865"/><stop style="stop-color:#d99564" id="stop192" offset=".91"/><stop style="stop-color:#c48557" id="stop194" offset=".928"/><stop style="stop-color:#aa7045" id="stop196" offset=".956"/><stop style="stop-color:#9a633b" id="stop198" offset=".981"/><stop style="stop-color:#945f37" id="stop200" offset="1"/></linearGradient><linearGradient id="XMLID_5_" x1="44.751" x2="83.374" y1="94.772" y2="89.136" gradientTransform="translate(-142.55625,-33.100248)" gradientUnits="userSpaceOnUse"><stop style="stop-color:#a86e45" id="stop87" offset="0"/><stop style="stop-color:#e8a06c" id="stop89" offset=".112"/><stop style="stop-color:#e59e6b" id="stop91" offset=".161"/><stop style="stop-color:#da9969" id="stop93" offset=".201"/><stop style="stop-color:#c99066" id="stop95" offset=".239"/><stop style="stop-color:#b18461" id="stop97" offset=".274"/><stop style="stop-color:#92745a" id="stop99" offset=".308"/><stop style="stop-color:#786755" id="stop101" offset=".332"/><stop style="stop-color:#b5aca2" id="stop103" offset=".407"/><stop style="stop-color:#eae8e5" id="stop105" offset=".478"/><stop style="stop-color:#fff" id="stop107" offset=".511"/><stop style="stop-color:#fdfcfc" id="stop109" offset=".538"/><stop style="stop-color:#f5f3f2" id="stop111" offset=".559"/><stop style="stop-color:#e8e4e1" id="stop113" offset=".578"/><stop style="stop-color:#d6cec9" id="stop115" offset=".597"/><stop style="stop-color:#bfb3aa" id="stop117" offset=".614"/><stop style="stop-color:#a39185" id="stop119" offset=".631"/><stop style="stop-color:#816959" id="stop121" offset=".647"/><stop style="stop-color:#785e4c" id="stop123" offset=".652"/><stop style="stop-color:#83654f" id="stop125" offset=".671"/><stop style="stop-color:#a87958" id="stop127" offset=".741"/><stop style="stop-color:#c3895f" id="stop129" offset=".807"/><stop style="stop-color:#d39263" id="stop131" offset=".865"/><stop style="stop-color:#d99564" id="stop133" offset=".91"/><stop style="stop-color:#c48557" id="stop135" offset=".928"/><stop style="stop-color:#aa7045" id="stop137" offset=".956"/><stop style="stop-color:#9a633b" id="stop139" offset=".981"/><stop style="stop-color:#945f37" id="stop141" offset="1"/></linearGradient><linearGradient id="XMLID_2_" x1="44.89" x2="83.585" y1="95.732" y2="90.086" gradientTransform="translate(-142.55625,-33.100248)" gradientUnits="userSpaceOnUse"><stop style="stop-color:#a86e45" id="stop60" offset="0"/><stop style="stop-color:#785e4c" id="stop62" offset=".579"/><stop style="stop-color:#945f37" id="stop64" offset="1"/></linearGradient><linearGradient id="XMLID_1_" x1="47.999" x2="81.999" y1="100.5" y2="100.5" gradientTransform="translate(-142.55625,-33.100248)" gradientUnits="userSpaceOnUse"><stop style="stop-color:#9c6137" id="stop47" offset=".006"/><stop style="stop-color:#c98452" id="stop49" offset=".169"/><stop style="stop-color:#cd8d5f" id="stop51" offset=".534"/><stop style="stop-color:#c47d4a" id="stop53" offset=".809"/><stop style="stop-color:#9c6137" id="stop55" offset="1"/></linearGradient><radialGradient id="light_1_" cx="-27.672" cy="-109.907" r="9" gradientTransform="matrix(2.7917,0,0,2.7907,141.7533,350.9971)" gradientUnits="userSpaceOnUse"><stop style="stop-color:#fff" id="stop37" offset=".264"/><stop style="stop-color:#fff18f;stop-opacity:0" id="stop39" offset="2.5"/></radialGradient><radialGradient id="XMLID_10_" cx="-27.613" cy="-86.536" r="6.211" gradientTransform="matrix(2.7917,0,0,2.7907,-0.8029473,317.89685)" gradientUnits="userSpaceOnUse"><stop style="stop-color:#fff" id="stop8" offset=".343"/><stop style="stop-color:#ececec" id="stop10" offset=".375"/><stop style="stop-color:#bcbcbc" id="stop12" offset=".467"/><stop style="stop-color:#979797" id="stop14" offset=".553"/><stop style="stop-color:#7c7c7c" id="stop16" offset=".633"/><stop style="stop-color:#6c6c6c" id="stop18" offset=".704"/><stop style="stop-color:#666" id="stop20" offset=".758"/></radialGradient><linearGradient id="XMLID_4_" x1="37.674" x2="37.674" y1="25.604" y2="47.501" gradientTransform="translate(-2.6725931e-2,-44.465488)" gradientUnits="userSpaceOnUse"><stop style="stop-color:#fcb462" id="stop40" offset="0"/><stop style="stop-color:#fcaf55" id="stop42" offset="1"/></linearGradient><linearGradient id="XMLID_3_" x1="75.504" x2="85.597" y1="11.96" y2="36.331" gradientTransform="translate(-2.6725931e-2,-44.465488)" gradientUnits="userSpaceOnUse"><stop style="stop-color:#f99d77" id="stop33" offset="0"/><stop style="stop-color:#f7804e" id="stop35" offset="1"/></linearGradient><linearGradient id="linearGradient4041" x1="-43.031" x2="-15.678" y1="8.638" y2="37.492" gradientUnits="userSpaceOnUse" xlink:href="#linearGradient4035"/><linearGradient id="linearGradient4189" x1="-43.031" x2="-15.678" y1="8.638" y2="37.492" gradientUnits="userSpaceOnUse" xlink:href="#linearGradient4035"/><mask id="mask4181" maskUnits="userSpaceOnUse"><g id="g4183" transform="matrix(0.7925926,0,0,0.8907563,4.6132029,-3.2693226)"><path id="path4185" d="M -10.007212 23.982693 A 20.014421 20.014421 0 1 1 -50.036055,23.982693 A 20.014421 20.014421 0 1 1 -10.007212 23.982693 z" transform="translate(-15.844752,8.8397036)" style="opacity:1;fill:#c88cbb;fill-opacity:1;stroke:none;stroke-width:1;stroke-miterlimit:4;stroke-dasharray:none;stroke-dashoffset:0;stroke-opacity:1"/><path id="path4187" d="M -10.007212 23.982693 A 20.014421 20.014421 0 1 1 -50.036055,23.982693 A 20.014421 20.014421 0 1 1 -10.007212 23.982693 z" transform="translate(-13.843309,8.8397036)" style="opacity:1;fill:url(#linearGradient4189);fill-opacity:1;stroke:none;stroke-width:1;stroke-miterlimit:4;stroke-dasharray:none;stroke-dashoffset:0;stroke-opacity:1"/></g></mask><filter id="filter4267" width="1.842" height="1.85" x="-.421" y="-.425"><feGaussianBlur id="feGaussianBlur4269" stdDeviation="3.129"/></filter><linearGradient id="linearGradient4301" x1="-43.031" x2="-15.678" y1="8.638" y2="37.492" gradientUnits="userSpaceOnUse" xlink:href="#linearGradient4035"/><mask id="mask4297" maskUnits="userSpaceOnUse"><path style="opacity:1;fill:url(#linearGradient4301);fill-opacity:1;stroke:none;stroke-width:1;stroke-miterlimit:4;stroke-dasharray:none;stroke-dashoffset:0;stroke-opacity:1" id="path4299" d="M -10.007212 23.982693 A 20.014421 20.014421 0 1 1 -50.036055,23.982693 A 20.014421 20.014421 0 1 1 -10.007212 23.982693 z" transform="translate(3.5679857,1.3974438)"/></mask><linearGradient id="linearGradient4368" x1="-47.534" x2="-.167" y1="2.968" y2="49.501" gradientTransform="matrix(0.9683099,0,0,0.9683099,47.162254,-1.0174889)" gradientUnits="userSpaceOnUse" xlink:href="#linearGradient4003"/><linearGradient id="linearGradient4371" x1="-47.534" x2="-.167" y1="2.968" y2="49.501" gradientTransform="matrix(1.0105249,0,0,1.0105249,3.4549308e-2,-50.022066)" gradientUnits="userSpaceOnUse" xlink:href="#linearGradient4003"/><clipPath id="clipPath4423" clipPathUnits="userSpaceOnUse"><path id="path4425" d="M -10.007212 23.982693 A 20.014421 20.014421 0 1 1 -50.036055,23.982693 A 20.014421 20.014421 0 1 1 -10.007212 23.982693 z" transform="translate(4.9557997,-4.7430601e-2)" style="opacity:1;fill:url(#linearGradient4427);fill-opacity:1;stroke:none;stroke-width:1;stroke-miterlimit:4;stroke-dasharray:none;stroke-dashoffset:0;stroke-opacity:1"/></clipPath><linearGradient id="linearGradient4427" x1="-43.031" x2="-15.678" y1="8.638" y2="37.492" gradientUnits="userSpaceOnUse" xlink:href="#linearGradient4035"/><linearGradient id="linearGradient4429" x1="-46.468" x2="-6.439" y1="19.313" y2="19.313" gradientUnits="userSpaceOnUse" xlink:href="#linearGradient4373"/><linearGradient id="linearGradient4431" x1="-46.468" x2="-6.439" y1="22.481" y2="22.481" gradientUnits="userSpaceOnUse" xlink:href="#linearGradient4373"/><linearGradient id="linearGradient4433" x1="-46.468" x2="-6.439" y1="25.482" y2="25.482" gradientUnits="userSpaceOnUse" xlink:href="#linearGradient4373"/><linearGradient id="linearGradient4435" x1="-46.468" x2="-6.439" y1="28.482" y2="28.482" gradientUnits="userSpaceOnUse" xlink:href="#linearGradient4373"/><radialGradient id="radialGradient4753" cx="-27.613" cy="-86.536" r="6.211" gradientTransform="matrix(2.7917,0,0,2.7907,-0.8029473,317.89685)" gradientUnits="userSpaceOnUse" xlink:href="#XMLID_10_"/><radialGradient id="radialGradient4755" cx="-27.672" cy="-109.907" r="9" gradientTransform="matrix(2.7917,0,0,2.7907,141.7533,350.9971)" gradientUnits="userSpaceOnUse" xlink:href="#light_1_"/><linearGradient id="linearGradient4757" x1="47.999" x2="81.999" y1="100.5" y2="100.5" gradientTransform="translate(-142.55625,-33.100248)" gradientUnits="userSpaceOnUse" xlink:href="#XMLID_1_"/><linearGradient id="linearGradient4759" x1="44.89" x2="83.585" y1="95.732" y2="90.086" gradientTransform="translate(-142.55625,-33.100248)" gradientUnits="userSpaceOnUse" xlink:href="#XMLID_2_"/><linearGradient id="linearGradient4761" x1="75.504" x2="85.597" y1="11.96" y2="36.331" gradientTransform="translate(-2.6725931e-2,-44.465488)" gradientUnits="userSpaceOnUse" xlink:href="#XMLID_3_"/><linearGradient id="linearGradient4763" x1="37.674" x2="37.674" y1="25.604" y2="47.501" gradientTransform="translate(-2.6725931e-2,-44.465488)" gradientUnits="userSpaceOnUse" xlink:href="#XMLID_4_"/><linearGradient id="linearGradient4765" x1="44.751" x2="83.374" y1="94.772" y2="89.136" gradientTransform="translate(-142.55625,-33.100248)" gradientUnits="userSpaceOnUse" xlink:href="#XMLID_5_"/><linearGradient id="linearGradient4767" x1="-34.508" x2="-20.925" y1="-100.624" y2="-100.624" gradientTransform="matrix(2.7917,-0.3987,0,2.7907,-0.8029473,335.99965)" gradientUnits="userSpaceOnUse" xlink:href="#XMLID_6_"/><linearGradient id="linearGradient4769" x1="45.416" x2="83.335" y1="107.018" y2="107.018" gradientTransform="translate(-142.55625,-33.100248)" gradientUnits="userSpaceOnUse" xlink:href="#XMLID_7_"/><linearGradient id="linearGradient4771" x1="36.249" x2="92.749" y1="18.119" y2="18.119" gradientTransform="translate(-142.55625,-33.100248)" gradientUnits="userSpaceOnUse" xlink:href="#XMLID_8_"/><radialGradient id="radialGradient4817" cx="-27.613" cy="-86.536" r="6.211" gradientTransform="matrix(2.7917,0,0,2.7907,-0.8029473,317.89685)" gradientUnits="userSpaceOnUse" xlink:href="#XMLID_10_"/><radialGradient id="radialGradient4819" cx="-27.672" cy="-109.907" r="9" gradientTransform="matrix(2.7917,0,0,2.7907,141.7533,350.9971)" gradientUnits="userSpaceOnUse" xlink:href="#light_1_"/><linearGradient id="linearGradient4821" x1="47.999" x2="81.999" y1="100.5" y2="100.5" gradientTransform="translate(-142.55625,-33.100248)" gradientUnits="userSpaceOnUse" xlink:href="#XMLID_1_"/><linearGradient id="linearGradient4823" x1="44.89" x2="83.585" y1="95.732" y2="90.086" gradientTransform="translate(-142.55625,-33.100248)" gradientUnits="userSpaceOnUse" xlink:href="#XMLID_2_"/><linearGradient id="linearGradient4825" x1="75.504" x2="85.597" y1="11.96" y2="36.331" gradientTransform="translate(-2.6725931e-2,-44.465488)" gradientUnits="userSpaceOnUse" xlink:href="#XMLID_3_"/><linearGradient id="linearGradient4827" x1="37.674" x2="37.674" y1="25.604" y2="47.501" gradientTransform="translate(-2.6725931e-2,-44.465488)" gradientUnits="userSpaceOnUse" xlink:href="#XMLID_4_"/><linearGradient id="linearGradient4829" x1="44.751" x2="83.374" y1="94.772" y2="89.136" gradientTransform="translate(-142.55625,-33.100248)" gradientUnits="userSpaceOnUse" xlink:href="#XMLID_5_"/><linearGradient id="linearGradient4831" x1="-34.508" x2="-20.925" y1="-100.624" y2="-100.624" gradientTransform="matrix(2.7917,-0.3987,0,2.7907,-0.8029473,335.99965)" gradientUnits="userSpaceOnUse" xlink:href="#XMLID_6_"/><linearGradient id="linearGradient4833" x1="45.416" x2="83.335" y1="107.018" y2="107.018" gradientTransform="translate(-142.55625,-33.100248)" gradientUnits="userSpaceOnUse" xlink:href="#XMLID_7_"/><linearGradient id="linearGradient4835" x1="36.249" x2="92.749" y1="18.119" y2="18.119" gradientTransform="translate(-142.55625,-33.100248)" gradientUnits="userSpaceOnUse" xlink:href="#XMLID_8_"/><clipPath id="clipPath7503" clipPathUnits="userSpaceOnUse"><g id="g7505" transform="matrix(7.4511206,0,0,7.4511206,305.77432,266.76067)"><path id="path7507" d="M -29.775161,-22.982238 C -29.796903,-23.107991 -29.878636,-23.210123 -29.986136,-23.268906 L -29.986136,-23.560406 C -29.836092,-23.636636 -29.745233,-23.799162 -29.775161,-23.971619 C -29.797037,-24.097641 -29.879038,-24.200041 -29.986942,-24.25869 C -29.991505,-24.402695 -30.109876,-24.519188 -30.254687,-24.519188 L -34.370443,-24.519188 C -34.518072,-24.519188 -34.638859,-24.398401 -34.638859,-24.250772 L -34.638859,-23.677033 L -34.648925,-23.675691 C -34.872381,-23.643481 -35.024305,-23.439619 -34.986727,-23.22247 C -34.956396,-23.047329 -34.811048,-22.917013 -34.638994,-22.889232 L -34.638994,-22.687786 L -34.649059,-22.686175 C -34.872516,-22.654234 -35.024439,-22.450237 -34.986861,-22.233223 C -34.95653,-22.058082 -34.811182,-21.927632 -34.639128,-21.89985 L -34.639128,-21.69827 L -34.649193,-21.696928 C -34.87265,-21.664718 -35.024573,-21.460856 -34.986995,-21.243708 C -34.954785,-21.057829 -34.793199,-20.921072 -34.607186,-20.905503 C -34.562092,-20.820281 -34.473381,-20.761364 -34.370846,-20.761364 L -34.129003,-20.761364 C -33.83294,-20.026441 -33.162303,-19.419284 -32.381347,-19.419284 C -31.600256,-19.419284 -30.929753,-20.026441 -30.63369,-20.761364 L -30.255089,-20.761364 C -30.10746,-20.761364 -29.986673,-20.882151 -29.986673,-21.02978 L -29.986673,-21.581509 C -29.836629,-21.657739 -29.74577,-21.820265 -29.775698,-21.992722 C -29.79744,-22.118475 -29.879173,-22.220608 -29.986673,-22.279391 L -29.986673,-22.570756 C -29.836226,-22.647121 -29.745367,-22.809781 -29.775161,-22.982238 z" style="opacity:.2;fill:#141414"/><path id="path7509" d="M -29.775161,-22.84803 C -29.796903,-22.973783 -29.878636,-23.075915 -29.986136,-23.134698 L -29.986136,-23.426198 C -29.836092,-23.502428 -29.745233,-23.664954 -29.775161,-23.837411 C -29.797037,-23.963433 -29.879038,-24.065833 -29.986942,-24.124482 C -29.991505,-24.268487 -30.109876,-24.38498 -30.254687,-24.38498 L -34.370443,-24.38498 C -34.518072,-24.38498 -34.638859,-24.264193 -34.638859,-24.116564 L -34.638859,-23.542825 L -34.648925,-23.541483 C -34.872381,-23.509273 -35.024305,-23.305411 -34.986727,-23.088262 C -34.956396,-22.913121 -34.811048,-22.782805 -34.638994,-22.755024 L -34.638994,-22.553578 L -34.649059,-22.551967 C -34.872516,-22.520026 -35.024439,-22.316029 -34.986861,-22.099015 C -34.95653,-21.923874 -34.811182,-21.793424 -34.639128,-21.765642 L -34.639128,-21.564062 L -34.649193,-21.56272 C -34.87265,-21.53051 -35.024573,-21.326648 -34.986995,-21.1095 C -34.954785,-20.923621 -34.793199,-20.786864 -34.607186,-20.771295 C -34.562092,-20.686073 -34.473381,-20.627156 -34.370846,-20.627156 L -34.129003,-20.627156 C -33.83294,-19.892233 -33.162303,-19.285076 -32.381347,-19.285076 C -31.600256,-19.285076 -30.929753,-19.892233 -30.63369,-20.627156 L -30.255089,-20.627156 C -30.10746,-20.627156 -29.986673,-20.747943 -29.986673,-20.895572 L -29.986673,-21.447301 C -29.836629,-21.523531 -29.74577,-21.686057 -29.775698,-21.858514 C -29.79744,-21.984267 -29.879173,-22.0864 -29.986673,-22.145183 L -29.986673,-22.436548 C -29.836226,-22.512913 -29.745367,-22.675573 -29.775161,-22.84803 z" style="opacity:.2;fill:#141414"/><path id="path7511" d="M -30.507669,-21.694512 C -30.507669,-20.66044 -31.346469,-19.553492 -32.381078,-19.553492 C -33.415553,-19.553492 -34.254353,-20.66044 -34.254353,-21.694512 C -34.254353,-22.728719 -33.415553,-23.298835 -32.381078,-23.298835 C -31.346469,-23.298835 -30.507669,-22.728719 -30.507669,-21.694512 z" style="fill:url(#radialGradient7547)"/><path id="path7513" d="M -32.380944,-35.12162 C -29.897962,-35.12162 -27.884976,-33.031465 -27.884976,-30.452926 C -27.884976,-27.874388 -30.519882,-25.378656 -30.519882,-24.634607 L -34.242141,-24.634607 C -34.242141,-25.557018 -36.876912,-27.874388 -36.876912,-30.452926 C -36.876912,-33.031465 -34.86406,-35.12162 -32.380944,-35.12162 z" style="opacity:.4;fill:#ffbf61"/><path id="path7515" d="M -32.380944,-35.926868 C -35.304128,-35.926868 -37.68216,-33.482538 -37.68216,-30.477889 C -37.68216,-28.627429 -36.56045,-26.960163 -35.741378,-25.742494 C -35.544227,-25.449384 -35.083893,-24.765325 -35.046315,-24.59515 C -35.036652,-24.159511 -34.680061,-23.807751 -34.242006,-23.807751 L -30.519882,-23.807751 C -30.10075,-23.807751 -29.759459,-24.130656 -29.722015,-24.540124 C -29.679203,-24.679969 -29.267184,-25.29585 -29.111906,-25.527761 C -28.301826,-26.738451 -27.079728,-28.56462 -27.079728,-30.477889 C -27.079728,-33.482538 -29.457894,-35.926868 -32.380944,-35.926868 z M -29.722015,-24.541198 C -29.721747,-24.54254 -29.721612,-24.544016 -29.721478,-24.545493 C -29.72121,-24.546566 -29.720405,-24.547372 -29.72027,-24.548445 C -29.72027,-24.54858 -29.721478,-24.543077 -29.722015,-24.541198 z M -30.519882,-24.612999 L -34.242141,-24.612999 C -34.242141,-25.530579 -36.877046,-27.91304 -36.877046,-30.477889 C -36.877046,-33.042738 -34.86406,-35.12162 -32.380944,-35.12162 C -29.897962,-35.12162 -27.884976,-33.042604 -27.884976,-30.477889 C -27.884976,-27.913174 -30.519882,-25.353022 -30.519882,-24.612999 z" style="opacity:.2;fill:#ff8b17"/><path id="path7517" d="M -32.380944,-35.658452 C -35.156097,-35.658452 -37.413744,-33.334506 -37.413744,-30.477889 C -37.413744,-28.709296 -36.318338,-27.08095 -35.518459,-25.892136 C -35.223872,-25.454215 -34.778838,-24.792972 -34.778838,-24.613134 C -34.778838,-24.317205 -34.538069,-24.076302 -34.242006,-24.076302 L -30.519882,-24.076302 C -30.223953,-24.076302 -29.98305,-24.317205 -29.98305,-24.613134 L -29.984123,-24.597834 C -29.955805,-24.749489 -29.566334,-25.331683 -29.333483,-25.67955 C -28.542864,-26.860983 -27.348144,-28.646218 -27.348144,-30.477889 C -27.348144,-33.334506 -29.605925,-35.658452 -32.380944,-35.658452 z M -30.519882,-24.612999 L -34.242141,-24.612999 C -34.242141,-25.530579 -36.877046,-27.91304 -36.877046,-30.477889 C -36.877046,-33.042738 -34.86406,-35.12162 -32.380944,-35.12162 C -29.897962,-35.12162 -27.884976,-33.042604 -27.884976,-30.477889 C -27.884976,-27.913174 -30.519882,-25.353022 -30.519882,-24.612999 z" style="opacity:.2;fill:#ff8b17"/><path id="path7519" d="M -32.380944,-35.390036 C -35.008066,-35.390036 -37.145328,-33.186475 -37.145328,-30.477889 C -37.145328,-28.791163 -36.076227,-27.202006 -35.295673,-26.041912 C -34.891841,-25.4416 -34.510422,-24.874705 -34.510422,-24.613134 C -34.510422,-24.464968 -34.390172,-24.344718 -34.242006,-24.344718 L -30.519882,-24.344718 C -30.371716,-24.344718 -30.251466,-24.464968 -30.251466,-24.613134 C -30.251466,-24.790288 -29.882125,-25.342151 -29.556402,-25.828924 C -28.784035,-26.983113 -27.61656,-28.727817 -27.61656,-30.477889 C -27.61656,-33.186475 -29.753957,-35.390036 -32.380944,-35.390036 z M -30.519882,-24.612999 L -34.242141,-24.612999 C -34.242141,-25.530579 -36.877046,-27.91304 -36.877046,-30.477889 C -36.877046,-33.042738 -34.86406,-35.12162 -32.380944,-35.12162 C -29.897962,-35.12162 -27.884976,-33.042604 -27.884976,-30.477889 C -27.884976,-27.913174 -30.519882,-25.353022 -30.519882,-24.612999 z" style="opacity:.4;fill:#ff8b17"/><path id="path7521" d="M -30.519882,-24.612999 L -34.242141,-24.612999 C -34.242141,-25.530579 -36.877046,-27.91304 -36.877046,-30.477889 C -36.877046,-33.042738 -34.86406,-35.12162 -32.380944,-35.12162 C -29.897962,-35.12162 -27.884976,-33.042604 -27.884976,-30.477889 C -27.884976,-27.913174 -30.519882,-25.353022 -30.519882,-24.612999 z" style="opacity:.2;fill:#ffbf61"/><path id="path7523" d="M -31.631661,-29.235257 L -31.631661,-27.362519 C -31.631661,-27.156778 -31.800494,-26.988078 -32.006369,-26.988078 L -32.755653,-26.988078 C -32.961662,-26.988078 -33.130361,-27.156778 -33.130361,-27.362519 L -33.130361,-29.235257 L -33.50507,-29.235257 L -33.50507,-27.362519 C -33.50507,-26.950634 -33.16794,-26.613504 -32.621579,-26.613504 L -32.621579,-24.366191 L -32.140712,-24.366191 L -32.140712,-26.61337 C -31.594351,-26.61337 -31.25722,-26.9505 -31.25722,-27.362384 L -31.25722,-29.235257 L -31.631661,-29.235257 z" style="fill:#cba572"/><path id="path7525" d="M -32.380944,-35.255828 C -34.934117,-35.255828 -37.01112,-33.112392 -37.01112,-30.477889 C -37.01112,-28.831694 -35.955037,-27.278102 -35.184012,-26.14391 C -34.750655,-25.506154 -34.376214,-24.928657 -34.376214,-24.626554 L -34.24308,-24.626554 C -34.267506,-25.553261 -36.876912,-27.924984 -36.876912,-30.477889 C -36.876912,-33.042604 -34.86406,-35.12162 -32.380944,-35.12162 C -29.897962,-35.12162 -27.884976,-33.042604 -27.884976,-30.477889 C -27.884976,-27.927534 -30.489282,-25.382682 -30.518674,-24.626554 L -30.385808,-24.626554 C -30.385808,-24.843971 -30.053375,-25.362551 -29.668466,-25.931996 C -28.859058,-27.128863 -27.750768,-28.768213 -27.750768,-30.477889 C -27.750768,-33.112392 -29.827905,-35.255828 -32.380944,-35.255828 z" style="fill:#9e8c68"/><path id="path7527" d="M -30.032304,-21.163988 C -30.032304,-21.016359 -30.153091,-20.895572 -30.30072,-20.895572 L -34.32696,-20.895572 C -34.474589,-20.895572 -34.595376,-21.016359 -34.595376,-21.163988 L -34.595376,-24.38498 C -34.595376,-24.532609 -34.474589,-24.653396 -34.32696,-24.653396 L -30.30072,-24.653396 C -30.153091,-24.653396 -30.032304,-24.532609 -30.032304,-24.38498 L -30.032304,-21.163988 z" style="fill:#966746"/><path id="path7529" d="M -30.032304,-21.298196 C -30.032304,-21.076753 -30.213485,-20.895572 -30.434928,-20.895572 L -34.192752,-20.895572 C -34.414195,-20.895572 -34.595376,-21.076753 -34.595376,-21.298196 L -34.595376,-24.116564 C -34.595376,-24.338007 -34.414195,-24.519188 -34.192752,-24.519188 L -30.434928,-24.519188 C -30.213485,-24.519188 -30.032304,-24.338007 -30.032304,-24.116564 L -30.032304,-21.298196 z" style="fill:url(#linearGradient7549)"/><path id="path7531" d="M -29.825355,-24.105827 C -29.788582,-23.888813 -29.937553,-23.684817 -30.156581,-23.652741 L -34.470965,-23.020353 C -34.689993,-22.988412 -34.899491,-23.139664 -34.936399,-23.356678 C -34.973306,-23.573827 -34.824201,-23.777689 -34.605173,-23.809899 L -30.290789,-24.442153 C -30.071761,-24.474094 -29.862262,-24.322842 -29.825355,-24.105827 z" style="fill:url(#linearGradient7551)"/><path id="path7533" d="M -29.825355,-23.116446 C -29.788582,-22.899297 -29.937553,-22.695435 -30.156581,-22.66336 L -34.470965,-22.031106 C -34.689993,-21.998896 -34.899491,-22.150283 -34.936399,-22.367431 C -34.973306,-22.584445 -34.824201,-22.788442 -34.605173,-22.820383 L -30.290789,-23.452637 C -30.071761,-23.484847 -29.862262,-23.33346 -29.825355,-23.116446 z" style="fill:url(#linearGradient7553)"/><path id="path7535" d="M -29.825355,-22.127065 C -29.788582,-21.91005 -29.937553,-21.706054 -30.156581,-21.673978 L -34.470965,-21.04159 C -34.689993,-21.009649 -34.899491,-21.160901 -34.936399,-21.377916 C -34.973306,-21.595064 -34.824201,-21.798926 -34.605173,-21.831136 L -30.290789,-22.46339 C -30.071761,-22.495331 -29.862262,-22.344079 -29.825355,-22.127065 z" style="fill:url(#linearGradient7555)"/><path id="path7537" d="M -34.887815,-23.22341 L -34.936533,-23.356678 C -34.97344,-23.573827 -34.824335,-23.777689 -34.605307,-23.809899 L -30.290923,-24.442153 C -30.071895,-24.474094 -29.882528,-24.396656 -29.845755,-24.179642 L -34.887815,-23.22341 z" style="fill:url(#linearGradient7557)"/><path id="path7539" d="M -34.880031,-22.220339 L -29.853136,-23.208244 C -29.889909,-23.425259 -30.071761,-23.484847 -30.290789,-23.452503 L -34.605173,-22.820249 C -34.824201,-22.788307 -34.973306,-22.584311 -34.936399,-22.367297 L -34.880031,-22.220339 z" style="fill:url(#linearGradient7559)"/><path id="path7541" d="M -34.853592,-21.194185 L -29.853002,-22.218594 C -29.889909,-22.435609 -30.071761,-22.495466 -30.290789,-22.46339 L -34.605173,-21.831136 C -34.824201,-21.798926 -34.973306,-21.595064 -34.936399,-21.377916 L -34.853592,-21.194185 z" style="fill:url(#linearGradient7561)"/><path id="path7543" d="M -28.589568,-32.601596 C -29.364217,-34.00152 -30.787895,-34.925676 -32.380944,-34.925676 C -33.973993,-34.925676 -35.397671,-34.00152 -36.17232,-32.601596 C -35.153681,-33.183656 -33.826767,-33.537429 -32.380944,-33.537429 C -30.935121,-33.537295 -29.608207,-33.183656 -28.589568,-32.601596 z" style="fill:url(#linearGradient7563)"/><path id="path7545" d="M -34.042707,-20.761364 L -30.719449,-20.761364 C -30.706297,-20.805384 -30.69462,-20.85021 -30.684823,-20.895572 L -34.077199,-20.895572 C -34.067402,-20.85021 -34.055726,-20.805384 -34.042707,-20.761364 z" style="fill:#3f3f3f"/></g></clipPath><radialGradient id="radialGradient7547" cx="-27.613" cy="-86.536" r="6.211" gradientTransform="matrix(0.3746685,0,0,0.3745343,-41.145122,6.4690164)" gradientUnits="userSpaceOnUse" xlink:href="#XMLID_10_"/><linearGradient id="linearGradient7549" x1="47.999" x2="81.999" y1="100.5" y2="100.5" gradientTransform="matrix(0.134208,0,0,0.134208,-60.169549,-40.637602)" gradientUnits="userSpaceOnUse" xlink:href="#XMLID_1_"/><linearGradient id="linearGradient7551" x1="44.89" x2="83.585" y1="95.732" y2="90.086" gradientTransform="matrix(0.134208,0,0,0.134208,-60.169549,-40.637602)" gradientUnits="userSpaceOnUse" xlink:href="#XMLID_2_"/><linearGradient id="linearGradient7553" x1="75.504" x2="85.597" y1="11.96" y2="36.331" gradientTransform="matrix(0.134208,0,0,0.134208,-41.040947,-42.162908)" gradientUnits="userSpaceOnUse" xlink:href="#XMLID_3_"/><linearGradient id="linearGradient7555" x1="37.674" x2="37.674" y1="25.604" y2="47.501" gradientTransform="matrix(0.134208,0,0,0.134208,-41.040947,-42.162908)" gradientUnits="userSpaceOnUse" xlink:href="#XMLID_4_"/><linearGradient id="linearGradient7557" x1="44.751" x2="83.374" y1="94.772" y2="89.136" gradientTransform="matrix(0.134208,0,0,0.134208,-60.169549,-40.637602)" gradientUnits="userSpaceOnUse" xlink:href="#XMLID_5_"/><linearGradient id="linearGradient7559" x1="-34.508" x2="-20.925" y1="-100.624" y2="-100.624" gradientTransform="matrix(0.3746685,-5.350873e-2,0,0.3745343,-41.145122,8.898557)" gradientUnits="userSpaceOnUse" xlink:href="#XMLID_6_"/><linearGradient id="linearGradient7561" x1="45.416" x2="83.335" y1="107.018" y2="107.018" gradientTransform="matrix(0.134208,0,0,0.134208,-60.169549,-40.637602)" gradientUnits="userSpaceOnUse" xlink:href="#XMLID_7_"/><linearGradient id="linearGradient7563" x1="36.249" x2="92.749" y1="18.119" y2="18.119" gradientTransform="matrix(0.134208,0,0,0.134208,-60.169549,-40.637602)" gradientUnits="userSpaceOnUse" xlink:href="#XMLID_8_"/><radialGradient id="radialGradient7653" cx="-27.672" cy="-109.907" r="9" gradientTransform="matrix(2.7917,0,0,2.7907,141.7533,350.9971)" gradientUnits="userSpaceOnUse" xlink:href="#light_1_"/><radialGradient id="radialGradient8092" cx="-27.613" cy="-86.536" r="6.211" gradientTransform="matrix(0.3746685,0,0,0.3745343,-41.145122,6.4690164)" gradientUnits="userSpaceOnUse" xlink:href="#XMLID_10_"/><linearGradient id="linearGradient8094" x1="47.999" x2="81.999" y1="100.5" y2="100.5" gradientTransform="matrix(0.134208,0,0,0.134208,-60.169549,-40.637602)" gradientUnits="userSpaceOnUse" xlink:href="#XMLID_1_"/><linearGradient id="linearGradient8096" x1="44.89" x2="83.585" y1="95.732" y2="90.086" gradientTransform="matrix(0.134208,0,0,0.134208,-60.169549,-40.637602)" gradientUnits="userSpaceOnUse" xlink:href="#XMLID_2_"/><linearGradient id="linearGradient8098" x1="75.504" x2="85.597" y1="11.96" y2="36.331" gradientTransform="matrix(0.134208,0,0,0.134208,-41.040947,-42.162908)" gradientUnits="userSpaceOnUse" xlink:href="#XMLID_3_"/><linearGradient id="linearGradient8100" x1="37.674" x2="37.674" y1="25.604" y2="47.501" gradientTransform="matrix(0.134208,0,0,0.134208,-41.040947,-42.162908)" gradientUnits="userSpaceOnUse" xlink:href="#XMLID_4_"/><linearGradient id="linearGradient8102" x1="44.751" x2="83.374" y1="94.772" y2="89.136" gradientTransform="matrix(0.134208,0,0,0.134208,-60.169549,-40.637602)" gradientUnits="userSpaceOnUse" xlink:href="#XMLID_5_"/><linearGradient id="linearGradient8104" x1="-34.508" x2="-20.925" y1="-100.624" y2="-100.624" gradientTransform="matrix(0.3746685,-5.350873e-2,0,0.3745343,-41.145122,8.898557)" gradientUnits="userSpaceOnUse" xlink:href="#XMLID_6_"/><linearGradient id="linearGradient8106" x1="45.416" x2="83.335" y1="107.018" y2="107.018" gradientTransform="matrix(0.134208,0,0,0.134208,-60.169549,-40.637602)" gradientUnits="userSpaceOnUse" xlink:href="#XMLID_7_"/><linearGradient id="linearGradient8108" x1="36.249" x2="92.749" y1="18.119" y2="18.119" gradientTransform="matrix(0.134208,0,0,0.134208,-60.169549,-40.637602)" gradientUnits="userSpaceOnUse" xlink:href="#XMLID_8_"/><radialGradient id="radialGradient8110" cx="-27.672" cy="-109.907" r="9" gradientTransform="matrix(2.7917,0,0,2.7907,141.7533,350.9971)" gradientUnits="userSpaceOnUse" xlink:href="#light_1_"/><mask id="mask8044" maskUnits="userSpaceOnUse"><g id="g8046" transform="translate(8.8639968,22.032387)"><g id="g8048"><path style="opacity:.2;fill:#141414" id="path8050" d="M -29.775161,-22.982238 C -29.796903,-23.107991 -29.878636,-23.210123 -29.986136,-23.268906 L -29.986136,-23.560406 C -29.836092,-23.636636 -29.745233,-23.799162 -29.775161,-23.971619 C -29.797037,-24.097641 -29.879038,-24.200041 -29.986942,-24.25869 C -29.991505,-24.402695 -30.109876,-24.519188 -30.254687,-24.519188 L -34.370443,-24.519188 C -34.518072,-24.519188 -34.638859,-24.398401 -34.638859,-24.250772 L -34.638859,-23.677033 L -34.648925,-23.675691 C -34.872381,-23.643481 -35.024305,-23.439619 -34.986727,-23.22247 C -34.956396,-23.047329 -34.811048,-22.917013 -34.638994,-22.889232 L -34.638994,-22.687786 L -34.649059,-22.686175 C -34.872516,-22.654234 -35.024439,-22.450237 -34.986861,-22.233223 C -34.95653,-22.058082 -34.811182,-21.927632 -34.639128,-21.89985 L -34.639128,-21.69827 L -34.649193,-21.696928 C -34.87265,-21.664718 -35.024573,-21.460856 -34.986995,-21.243708 C -34.954785,-21.057829 -34.793199,-20.921072 -34.607186,-20.905503 C -34.562092,-20.820281 -34.473381,-20.761364 -34.370846,-20.761364 L -34.129003,-20.761364 C -33.83294,-20.026441 -33.162303,-19.419284 -32.381347,-19.419284 C -31.600256,-19.419284 -30.929753,-20.026441 -30.63369,-20.761364 L -30.255089,-20.761364 C -30.10746,-20.761364 -29.986673,-20.882151 -29.986673,-21.02978 L -29.986673,-21.581509 C -29.836629,-21.657739 -29.74577,-21.820265 -29.775698,-21.992722 C -29.79744,-22.118475 -29.879173,-22.220608 -29.986673,-22.279391 L -29.986673,-22.570756 C -29.836226,-22.647121 -29.745367,-22.809781 -29.775161,-22.982238 z"/><path style="opacity:.2;fill:#141414" id="path8052" d="M -29.775161,-22.84803 C -29.796903,-22.973783 -29.878636,-23.075915 -29.986136,-23.134698 L -29.986136,-23.426198 C -29.836092,-23.502428 -29.745233,-23.664954 -29.775161,-23.837411 C -29.797037,-23.963433 -29.879038,-24.065833 -29.986942,-24.124482 C -29.991505,-24.268487 -30.109876,-24.38498 -30.254687,-24.38498 L -34.370443,-24.38498 C -34.518072,-24.38498 -34.638859,-24.264193 -34.638859,-24.116564 L -34.638859,-23.542825 L -34.648925,-23.541483 C -34.872381,-23.509273 -35.024305,-23.305411 -34.986727,-23.088262 C -34.956396,-22.913121 -34.811048,-22.782805 -34.638994,-22.755024 L -34.638994,-22.553578 L -34.649059,-22.551967 C -34.872516,-22.520026 -35.024439,-22.316029 -34.986861,-22.099015 C -34.95653,-21.923874 -34.811182,-21.793424 -34.639128,-21.765642 L -34.639128,-21.564062 L -34.649193,-21.56272 C -34.87265,-21.53051 -35.024573,-21.326648 -34.986995,-21.1095 C -34.954785,-20.923621 -34.793199,-20.786864 -34.607186,-20.771295 C -34.562092,-20.686073 -34.473381,-20.627156 -34.370846,-20.627156 L -34.129003,-20.627156 C -33.83294,-19.892233 -33.162303,-19.285076 -32.381347,-19.285076 C -31.600256,-19.285076 -30.929753,-19.892233 -30.63369,-20.627156 L -30.255089,-20.627156 C -30.10746,-20.627156 -29.986673,-20.747943 -29.986673,-20.895572 L -29.986673,-21.447301 C -29.836629,-21.523531 -29.74577,-21.686057 -29.775698,-21.858514 C -29.79744,-21.984267 -29.879173,-22.0864 -29.986673,-22.145183 L -29.986673,-22.436548 C -29.836226,-22.512913 -29.745367,-22.675573 -29.775161,-22.84803 z"/><path style="fill:url(#radialGradient8092)" id="path8054" d="M -30.507669,-21.694512 C -30.507669,-20.66044 -31.346469,-19.553492 -32.381078,-19.553492 C -33.415553,-19.553492 -34.254353,-20.66044 -34.254353,-21.694512 C -34.254353,-22.728719 -33.415553,-23.298835 -32.381078,-23.298835 C -31.346469,-23.298835 -30.507669,-22.728719 -30.507669,-21.694512 z"/><path style="opacity:.4;fill:#ffbf61" id="path8056" d="M -32.380944,-35.12162 C -29.897962,-35.12162 -27.884976,-33.031465 -27.884976,-30.452926 C -27.884976,-27.874388 -30.519882,-25.378656 -30.519882,-24.634607 L -34.242141,-24.634607 C -34.242141,-25.557018 -36.876912,-27.874388 -36.876912,-30.452926 C -36.876912,-33.031465 -34.86406,-35.12162 -32.380944,-35.12162 z"/><path style="opacity:.2;fill:#ff8b17" id="path8058" d="M -32.380944,-35.926868 C -35.304128,-35.926868 -37.68216,-33.482538 -37.68216,-30.477889 C -37.68216,-28.627429 -36.56045,-26.960163 -35.741378,-25.742494 C -35.544227,-25.449384 -35.083893,-24.765325 -35.046315,-24.59515 C -35.036652,-24.159511 -34.680061,-23.807751 -34.242006,-23.807751 L -30.519882,-23.807751 C -30.10075,-23.807751 -29.759459,-24.130656 -29.722015,-24.540124 C -29.679203,-24.679969 -29.267184,-25.29585 -29.111906,-25.527761 C -28.301826,-26.738451 -27.079728,-28.56462 -27.079728,-30.477889 C -27.079728,-33.482538 -29.457894,-35.926868 -32.380944,-35.926868 z M -29.722015,-24.541198 C -29.721747,-24.54254 -29.721612,-24.544016 -29.721478,-24.545493 C -29.72121,-24.546566 -29.720405,-24.547372 -29.72027,-24.548445 C -29.72027,-24.54858 -29.721478,-24.543077 -29.722015,-24.541198 z M -30.519882,-24.612999 L -34.242141,-24.612999 C -34.242141,-25.530579 -36.877046,-27.91304 -36.877046,-30.477889 C -36.877046,-33.042738 -34.86406,-35.12162 -32.380944,-35.12162 C -29.897962,-35.12162 -27.884976,-33.042604 -27.884976,-30.477889 C -27.884976,-27.913174 -30.519882,-25.353022 -30.519882,-24.612999 z"/><path style="opacity:.2;fill:#ff8b17" id="path8060" d="M -32.380944,-35.658452 C -35.156097,-35.658452 -37.413744,-33.334506 -37.413744,-30.477889 C -37.413744,-28.709296 -36.318338,-27.08095 -35.518459,-25.892136 C -35.223872,-25.454215 -34.778838,-24.792972 -34.778838,-24.613134 C -34.778838,-24.317205 -34.538069,-24.076302 -34.242006,-24.076302 L -30.519882,-24.076302 C -30.223953,-24.076302 -29.98305,-24.317205 -29.98305,-24.613134 L -29.984123,-24.597834 C -29.955805,-24.749489 -29.566334,-25.331683 -29.333483,-25.67955 C -28.542864,-26.860983 -27.348144,-28.646218 -27.348144,-30.477889 C -27.348144,-33.334506 -29.605925,-35.658452 -32.380944,-35.658452 z M -30.519882,-24.612999 L -34.242141,-24.612999 C -34.242141,-25.530579 -36.877046,-27.91304 -36.877046,-30.477889 C -36.877046,-33.042738 -34.86406,-35.12162 -32.380944,-35.12162 C -29.897962,-35.12162 -27.884976,-33.042604 -27.884976,-30.477889 C -27.884976,-27.913174 -30.519882,-25.353022 -30.519882,-24.612999 z"/><path style="opacity:.4;fill:#ff8b17" id="path8062" d="M -32.380944,-35.390036 C -35.008066,-35.390036 -37.145328,-33.186475 -37.145328,-30.477889 C -37.145328,-28.791163 -36.076227,-27.202006 -35.295673,-26.041912 C -34.891841,-25.4416 -34.510422,-24.874705 -34.510422,-24.613134 C -34.510422,-24.464968 -34.390172,-24.344718 -34.242006,-24.344718 L -30.519882,-24.344718 C -30.371716,-24.344718 -30.251466,-24.464968 -30.251466,-24.613134 C -30.251466,-24.790288 -29.882125,-25.342151 -29.556402,-25.828924 C -28.784035,-26.983113 -27.61656,-28.727817 -27.61656,-30.477889 C -27.61656,-33.186475 -29.753957,-35.390036 -32.380944,-35.390036 z M -30.519882,-24.612999 L -34.242141,-24.612999 C -34.242141,-25.530579 -36.877046,-27.91304 -36.877046,-30.477889 C -36.877046,-33.042738 -34.86406,-35.12162 -32.380944,-35.12162 C -29.897962,-35.12162 -27.884976,-33.042604 -27.884976,-30.477889 C -27.884976,-27.913174 -30.519882,-25.353022 -30.519882,-24.612999 z"/><path style="opacity:.2;fill:#ffbf61" id="path8064" d="M -30.519882,-24.612999 L -34.242141,-24.612999 C -34.242141,-25.530579 -36.877046,-27.91304 -36.877046,-30.477889 C -36.877046,-33.042738 -34.86406,-35.12162 -32.380944,-35.12162 C -29.897962,-35.12162 -27.884976,-33.042604 -27.884976,-30.477889 C -27.884976,-27.913174 -30.519882,-25.353022 -30.519882,-24.612999 z"/><path style="fill:#cba572" id="path8066" d="M -31.631661,-29.235257 L -31.631661,-27.362519 C -31.631661,-27.156778 -31.800494,-26.988078 -32.006369,-26.988078 L -32.755653,-26.988078 C -32.961662,-26.988078 -33.130361,-27.156778 -33.130361,-27.362519 L -33.130361,-29.235257 L -33.50507,-29.235257 L -33.50507,-27.362519 C -33.50507,-26.950634 -33.16794,-26.613504 -32.621579,-26.613504 L -32.621579,-24.366191 L -32.140712,-24.366191 L -32.140712,-26.61337 C -31.594351,-26.61337 -31.25722,-26.9505 -31.25722,-27.362384 L -31.25722,-29.235257 L -31.631661,-29.235257 z"/><path style="fill:#9e8c68" id="path8068" d="M -32.380944,-35.255828 C -34.934117,-35.255828 -37.01112,-33.112392 -37.01112,-30.477889 C -37.01112,-28.831694 -35.955037,-27.278102 -35.184012,-26.14391 C -34.750655,-25.506154 -34.376214,-24.928657 -34.376214,-24.626554 L -34.24308,-24.626554 C -34.267506,-25.553261 -36.876912,-27.924984 -36.876912,-30.477889 C -36.876912,-33.042604 -34.86406,-35.12162 -32.380944,-35.12162 C -29.897962,-35.12162 -27.884976,-33.042604 -27.884976,-30.477889 C -27.884976,-27.927534 -30.489282,-25.382682 -30.518674,-24.626554 L -30.385808,-24.626554 C -30.385808,-24.843971 -30.053375,-25.362551 -29.668466,-25.931996 C -28.859058,-27.128863 -27.750768,-28.768213 -27.750768,-30.477889 C -27.750768,-33.112392 -29.827905,-35.255828 -32.380944,-35.255828 z"/><path style="fill:#966746" id="path8070" d="M -30.032304,-21.163988 C -30.032304,-21.016359 -30.153091,-20.895572 -30.30072,-20.895572 L -34.32696,-20.895572 C -34.474589,-20.895572 -34.595376,-21.016359 -34.595376,-21.163988 L -34.595376,-24.38498 C -34.595376,-24.532609 -34.474589,-24.653396 -34.32696,-24.653396 L -30.30072,-24.653396 C -30.153091,-24.653396 -30.032304,-24.532609 -30.032304,-24.38498 L -30.032304,-21.163988 z"/><path style="fill:url(#linearGradient8094)" id="path8072" d="M -30.032304,-21.298196 C -30.032304,-21.076753 -30.213485,-20.895572 -30.434928,-20.895572 L -34.192752,-20.895572 C -34.414195,-20.895572 -34.595376,-21.076753 -34.595376,-21.298196 L -34.595376,-24.116564 C -34.595376,-24.338007 -34.414195,-24.519188 -34.192752,-24.519188 L -30.434928,-24.519188 C -30.213485,-24.519188 -30.032304,-24.338007 -30.032304,-24.116564 L -30.032304,-21.298196 z"/><path style="fill:url(#linearGradient8096)" id="path8074" d="M -29.825355,-24.105827 C -29.788582,-23.888813 -29.937553,-23.684817 -30.156581,-23.652741 L -34.470965,-23.020353 C -34.689993,-22.988412 -34.899491,-23.139664 -34.936399,-23.356678 C -34.973306,-23.573827 -34.824201,-23.777689 -34.605173,-23.809899 L -30.290789,-24.442153 C -30.071761,-24.474094 -29.862262,-24.322842 -29.825355,-24.105827 z"/><path style="fill:url(#linearGradient8098)" id="path8076" d="M -29.825355,-23.116446 C -29.788582,-22.899297 -29.937553,-22.695435 -30.156581,-22.66336 L -34.470965,-22.031106 C -34.689993,-21.998896 -34.899491,-22.150283 -34.936399,-22.367431 C -34.973306,-22.584445 -34.824201,-22.788442 -34.605173,-22.820383 L -30.290789,-23.452637 C -30.071761,-23.484847 -29.862262,-23.33346 -29.825355,-23.116446 z"/><path style="fill:url(#linearGradient8100)" id="path8078" d="M -29.825355,-22.127065 C -29.788582,-21.91005 -29.937553,-21.706054 -30.156581,-21.673978 L -34.470965,-21.04159 C -34.689993,-21.009649 -34.899491,-21.160901 -34.936399,-21.377916 C -34.973306,-21.595064 -34.824201,-21.798926 -34.605173,-21.831136 L -30.290789,-22.46339 C -30.071761,-22.495331 -29.862262,-22.344079 -29.825355,-22.127065 z"/><path style="fill:url(#linearGradient8102)" id="path8080" d="M -34.887815,-23.22341 L -34.936533,-23.356678 C -34.97344,-23.573827 -34.824335,-23.777689 -34.605307,-23.809899 L -30.290923,-24.442153 C -30.071895,-24.474094 -29.882528,-24.396656 -29.845755,-24.179642 L -34.887815,-23.22341 z"/><path style="fill:url(#linearGradient8104)" id="path8082" d="M -34.880031,-22.220339 L -29.853136,-23.208244 C -29.889909,-23.425259 -30.071761,-23.484847 -30.290789,-23.452503 L -34.605173,-22.820249 C -34.824201,-22.788307 -34.973306,-22.584311 -34.936399,-22.367297 L -34.880031,-22.220339 z"/><path style="fill:url(#linearGradient8106)" id="path8084" d="M -34.853592,-21.194185 L -29.853002,-22.218594 C -29.889909,-22.435609 -30.071761,-22.495466 -30.290789,-22.46339 L -34.605173,-21.831136 C -34.824201,-21.798926 -34.973306,-21.595064 -34.936399,-21.377916 L -34.853592,-21.194185 z"/><path style="fill:url(#linearGradient8108)" id="path8086" d="M -28.589568,-32.601596 C -29.364217,-34.00152 -30.787895,-34.925676 -32.380944,-34.925676 C -33.973993,-34.925676 -35.397671,-34.00152 -36.17232,-32.601596 C -35.153681,-33.183656 -33.826767,-33.537429 -32.380944,-33.537429 C -30.935121,-33.537295 -29.608207,-33.183656 -28.589568,-32.601596 z"/><path style="fill:#3f3f3f" id="path8088" d="M -34.042707,-20.761364 L -30.719449,-20.761364 C -30.706297,-20.805384 -30.69462,-20.85021 -30.684823,-20.895572 L -34.077199,-20.895572 C -34.067402,-20.85021 -34.055726,-20.805384 -34.042707,-20.761364 z"/></g><ellipse id="ellipse8090" cx="64.5" cy="44.279" clip-path="url(#clipPath7503)" rx="60.125" ry="60.116" transform="matrix(0.134208,0,0,0.134208,-41.03736,-36.195284)" style="fill:url(#radialGradient8110)"/></g></mask><linearGradient id="linearGradient8386" x1="75.504" x2="85.597" y1="11.96" y2="36.331" gradientTransform="translate(-2.6725931e-2,-44.465488)" gradientUnits="userSpaceOnUse" xlink:href="#XMLID_3_"/><linearGradient id="linearGradient8388" x1="37.674" x2="37.674" y1="25.604" y2="47.501" gradientTransform="translate(-2.6725931e-2,-44.465488)" gradientUnits="userSpaceOnUse" xlink:href="#XMLID_4_"/><linearGradient id="linearGradient8470" x1="75.504" x2="85.597" y1="11.96" y2="36.331" gradientTransform="translate(-2.6725931e-2,-44.465488)" gradientUnits="userSpaceOnUse" xlink:href="#XMLID_3_"/><linearGradient id="linearGradient8472" x1="37.674" x2="37.674" y1="25.604" y2="47.501" gradientTransform="translate(-2.6725931e-2,-44.465488)" gradientUnits="userSpaceOnUse" xlink:href="#XMLID_4_"/><mask id="mask8432" maskUnits="userSpaceOnUse"><g style="overflow:visible" id="g8434" transform="matrix(0.1570828,0,0,0.1570828,-28.616402,11.0008)"><path id="path8436" d="M 51.868,84.936 C 45.459,79.297 41.784,71.221 41.784,62.78 C 41.784,54.276 45.498,46.164 51.974,40.523 C 52.339,40.204 52.419,39.667 52.16,39.256 L 42.036,23.192 C 41.888,22.958 41.648,22.796 41.375,22.748 C 41.102,22.7 40.819,22.769 40.602,22.937 C 32.334,29.305 26.119,38.265 23.1,48.167 C 22.982,48.554 23.112,48.974 23.431,49.226 C 27.586,52.517 30.066,57.583 30.066,62.779 C 30.066,67.975 27.585,73.043 23.429,76.334 C 23.112,76.585 22.98,77.004 23.098,77.392 C 26.093,87.211 32.238,96.12 40.404,102.474 C 40.623,102.645 40.903,102.715 41.177,102.667 C 41.45,102.62 41.691,102.459 41.84,102.226 L 52.049,86.204 C 52.309,85.794 52.232,85.256 51.868,84.936 z M 12.803,50.223 C 5.732,50.223 0,55.951 0,63.016 C 0,70.081 5.732,75.81 12.803,75.81 C 19.874,75.81 25.606,70.081 25.606,63.016 C 25.606,55.951 19.874,50.223 12.803,50.223 z M 58.779,35.162 C 59.036,35.57 59.551,35.732 59.996,35.545 C 63.75,33.958 67.65,33.153 71.586,33.153 C 86.064,33.153 98.693,43.887 100.963,58.122 C 101.039,58.6 101.451,58.951 101.934,58.951 L 121.014,58.98 C 121.292,58.98 121.557,58.863 121.744,58.657 C 121.931,58.451 122.021,58.178 121.995,57.9 C 120.967,47.338 116.471,37.15 109.336,29.215 C 109.014,28.855 108.477,28.783 108.07,29.046 C 105.193,30.904 101.925,31.888 98.623,31.888 C 88.99,31.888 81.154,24.098 81.153,14.524 C 81.154,14.519 81.172,14.158 81.172,14.142 C 81.172,13.665 80.829,13.254 80.356,13.172 C 77.344,12.65 74.394,12.284 71.586,12.284 C 63.875,12.284 56.084,14.221 49.054,17.695 C 48.804,17.819 48.618,18.043 48.543,18.311 C 48.467,18.579 48.509,18.866 48.657,19.102 L 58.779,35.162 z M 98,27.5 C 104.908,27.5 110.51,21.902 110.51,15 C 110.51,8.096 104.908,2.5 98,2.5 C 91.092,2.5 85.49,8.096 85.49,15 C 85.49,21.902 91.092,27.5 98,27.5 z M 120.994,66.733 L 101.916,66.795 C 101.435,66.796 101.024,67.147 100.947,67.621 C 98.646,81.75 86.024,92.405 71.586,92.405 C 67.604,92.405 63.66,91.581 59.864,89.955 C 59.42,89.766 58.906,89.925 58.645,90.33 L 48.442,106.345 C 48.293,106.58 48.25,106.867 48.324,107.136 C 48.398,107.404 48.583,107.629 48.832,107.753 C 55.917,111.3 63.786,113.174 71.586,113.174 C 74.479,113.174 77.492,112.901 80.541,112.36 C 80.969,112.285 81.297,111.936 81.348,111.505 C 82.364,102.73 89.791,96.112 98.623,96.112 C 101.361,96.112 104.147,96.81 106.679,98.13 C 107.064,98.331 107.533,98.257 107.838,97.946 C 115.823,89.803 120.846,79.104 121.978,67.817 C 122.006,67.54 121.915,67.264 121.727,67.057 C 121.539,66.85 121.272,66.732 120.994,66.733 z M 98.486,100.545 C 91.415,100.545 85.682,106.242 85.682,113.273 C 85.682,120.302 91.414,126.001 98.486,126.001 C 105.556,126.001 111.289,120.303 111.289,113.273 C 111.289,106.242 105.557,100.545 98.486,100.545 z" style="opacity:.2;fill:#141414;fill-rule:evenodd"/><path id="path8438" d="M 51.868,85.936 C 45.459,80.297 41.784,72.221 41.784,63.78 C 41.784,55.276 45.498,47.164 51.974,41.523 C 52.339,41.204 52.419,40.667 52.16,40.256 L 42.036,24.192 C 41.888,23.958 41.648,23.796 41.375,23.748 C 41.102,23.7 40.819,23.769 40.602,23.937 C 32.334,30.305 26.119,39.265 23.1,49.167 C 22.982,49.554 23.112,49.974 23.431,50.226 C 27.586,53.517 30.066,58.583 30.066,63.779 C 30.066,68.975 27.585,74.043 23.429,77.334 C 23.112,77.585 22.98,78.004 23.098,78.392 C 26.093,88.211 32.238,97.12 40.404,103.474 C 40.623,103.645 40.903,103.715 41.177,103.667 C 41.45,103.62 41.691,103.459 41.84,103.226 L 52.049,87.204 C 52.309,86.794 52.232,86.256 51.868,85.936 z M 12.803,51.223 C 5.732,51.223 0,56.951 0,64.016 C 0,71.081 5.732,76.81 12.803,76.81 C 19.874,76.81 25.606,71.081 25.606,64.016 C 25.606,56.951 19.874,51.223 12.803,51.223 z M 58.779,36.162 C 59.036,36.57 59.551,36.732 59.996,36.545 C 63.75,34.958 67.65,34.153 71.586,34.153 C 86.064,34.153 98.693,44.887 100.963,59.122 C 101.039,59.6 101.451,59.951 101.934,59.951 L 121.014,59.98 C 121.292,59.98 121.557,59.863 121.744,59.657 C 121.931,59.451 122.021,59.178 121.995,58.9 C 120.967,48.338 116.471,38.15 109.336,30.215 C 109.014,29.855 108.477,29.783 108.07,30.046 C 105.193,31.904 101.925,32.888 98.623,32.888 C 88.99,32.888 81.154,25.098 81.153,15.524 C 81.154,15.519 81.172,15.158 81.172,15.142 C 81.172,14.665 80.829,14.254 80.356,14.172 C 77.344,13.65 74.394,13.284 71.586,13.284 C 63.875,13.284 56.084,15.221 49.054,18.695 C 48.804,18.819 48.618,19.043 48.543,19.311 C 48.467,19.579 48.509,19.866 48.657,20.102 L 58.779,36.162 z M 98,28.5 C 104.908,28.5 110.51,22.902 110.51,16 C 110.51,9.096 104.908,3.5 98,3.5 C 91.092,3.5 85.49,9.096 85.49,16 C 85.49,22.902 91.092,28.5 98,28.5 z M 120.994,67.733 L 101.916,67.795 C 101.435,67.796 101.024,68.147 100.947,68.621 C 98.646,82.75 86.024,93.405 71.586,93.405 C 67.604,93.405 63.66,92.581 59.864,90.955 C 59.42,90.766 58.906,90.925 58.645,91.33 L 48.442,107.345 C 48.293,107.58 48.25,107.867 48.324,108.136 C 48.398,108.404 48.583,108.629 48.832,108.753 C 55.917,112.3 63.786,114.174 71.586,114.174 C 74.479,114.174 77.492,113.901 80.541,113.36 C 80.969,113.285 81.297,112.936 81.348,112.505 C 82.364,103.73 89.791,97.112 98.623,97.112 C 101.361,97.112 104.147,97.81 106.679,99.13 C 107.064,99.331 107.533,99.257 107.838,98.946 C 115.823,90.803 120.846,80.104 121.978,68.817 C 122.006,68.54 121.915,68.264 121.727,68.057 C 121.539,67.85 121.272,67.732 120.994,67.733 z M 98.486,101.545 C 91.415,101.545 85.682,107.242 85.682,114.273 C 85.682,121.302 91.414,127.001 98.486,127.001 C 105.556,127.001 111.289,121.303 111.289,114.273 C 111.289,107.242 105.557,101.545 98.486,101.545 z" style="opacity:.2;fill:#141414;fill-rule:evenodd"/><path id="path8440" d="M 51.868,86.936 C 45.459,81.297 41.784,73.221 41.784,64.78 C 41.784,56.276 45.498,48.164 51.974,42.523 C 52.339,42.204 52.419,41.667 52.16,41.256 L 42.036,25.192 C 41.888,24.958 41.648,24.796 41.375,24.748 C 41.102,24.7 40.819,24.769 40.602,24.937 C 32.334,31.305 26.119,40.265 23.1,50.167 C 22.982,50.554 23.112,50.974 23.431,51.226 C 27.586,54.517 30.066,59.583 30.066,64.779 C 30.066,69.975 27.585,75.043 23.429,78.334 C 23.112,78.585 22.98,79.004 23.098,79.392 C 26.093,89.211 32.238,98.12 40.404,104.474 C 40.623,104.645 40.903,104.715 41.177,104.667 C 41.45,104.62 41.691,104.459 41.84,104.226 L 52.049,88.204 C 52.309,87.794 52.232,87.256 51.868,86.936 z M 12.803,52.223 C 5.732,52.223 0,57.951 0,65.016 C 0,72.081 5.732,77.81 12.803,77.81 C 19.874,77.81 25.606,72.081 25.606,65.016 C 25.606,57.951 19.874,52.223 12.803,52.223 z M 58.779,37.162 C 59.036,37.57 59.551,37.732 59.996,37.545 C 63.75,35.958 67.65,35.153 71.586,35.153 C 86.064,35.153 98.693,45.887 100.963,60.122 C 101.039,60.6 101.451,60.951 101.934,60.951 L 121.014,60.98 C 121.292,60.98 121.557,60.863 121.744,60.657 C 121.931,60.451 122.021,60.178 121.995,59.9 C 120.967,49.338 116.471,39.15 109.336,31.215 C 109.014,30.855 108.477,30.783 108.07,31.046 C 105.193,32.904 101.925,33.888 98.623,33.888 C 88.99,33.888 81.154,26.098 81.153,16.524 C 81.154,16.519 81.172,16.158 81.172,16.142 C 81.172,15.665 80.829,15.254 80.356,15.172 C 77.344,14.65 74.394,14.284 71.586,14.284 C 63.875,14.284 56.084,16.221 49.054,19.695 C 48.804,19.819 48.618,20.043 48.543,20.311 C 48.467,20.579 48.509,20.866 48.657,21.102 L 58.779,37.162 z M 98,29.5 C 104.908,29.5 110.51,23.902 110.51,17 C 110.51,10.096 104.908,4.5 98,4.5 C 91.092,4.5 85.49,10.096 85.49,17 C 85.49,23.902 91.092,29.5 98,29.5 z M 120.994,68.733 L 101.916,68.795 C 101.435,68.796 101.024,69.147 100.947,69.621 C 98.646,83.75 86.024,94.405 71.586,94.405 C 67.604,94.405 63.66,93.581 59.864,91.955 C 59.42,91.766 58.906,91.925 58.645,92.33 L 48.442,108.345 C 48.293,108.58 48.25,108.867 48.324,109.136 C 48.398,109.404 48.583,109.629 48.832,109.753 C 55.917,113.3 63.786,115.174 71.586,115.174 C 74.479,115.174 77.492,114.901 80.541,114.36 C 80.969,114.285 81.297,113.936 81.348,113.505 C 82.364,104.73 89.791,98.112 98.623,98.112 C 101.361,98.112 104.147,98.81 106.679,100.13 C 107.064,100.331 107.533,100.257 107.838,99.946 C 115.823,91.803 120.846,81.104 121.978,69.817 C 122.006,69.54 121.915,69.264 121.727,69.057 C 121.539,68.85 121.272,68.732 120.994,68.733 z M 98.486,102.545 C 91.415,102.545 85.682,108.242 85.682,115.273 C 85.682,122.302 91.414,128.001 98.486,128.001 C 105.556,128.001 111.289,122.303 111.289,115.273 C 111.289,108.242 105.557,102.545 98.486,102.545 z" style="opacity:.2;fill:#141414;fill-rule:evenodd"/><path id="path8442" d="M 40.602,21.938 C 32.334,28.306 26.119,37.266 23.1,47.168 C 22.982,47.555 23.112,47.975 23.431,48.227 C 27.586,51.518 30.066,56.584 30.066,61.78 C 30.066,66.976 27.585,72.044 23.429,75.335 C 23.112,75.586 22.98,76.005 23.098,76.393 C 26.093,86.212 32.238,95.121 40.404,101.475 C 40.623,101.646 40.903,101.716 41.177,101.668 C 41.45,101.621 41.691,101.46 41.84,101.227 L 52.049,85.205 C 52.31,84.796 52.234,84.258 51.869,83.937 C 45.46,78.298 41.785,70.222 41.785,61.781 C 41.785,53.277 45.499,45.165 51.975,39.524 C 52.34,39.205 52.42,38.668 52.161,38.257 L 42.036,22.192 C 41.888,21.958 41.648,21.796 41.375,21.748 C 41.102,21.7 40.819,21.769 40.602,21.938 z" style="fill:#f97a00"/><path id="path8444" d="M 24.042,47.455 C 28.431,50.932 31.051,56.219 31.051,61.779 C 31.051,67.339 28.43,72.628 24.04,76.104 C 26.991,85.785 32.981,94.45 41.008,100.697 C 42.028,99.097 50.449,85.879 51.217,84.674 C 44.602,78.854 40.799,70.574 40.799,61.779 C 40.799,52.92 44.642,44.603 51.327,38.78 C 50.565,37.572 42.215,24.322 41.203,22.717 C 33.076,28.978 27.018,37.694 24.042,47.455 z" style="fill:#fb8b00"/><ellipse id="ellipse8446" cx="12.803" cy="62.016" rx="12.803" ry="12.794" style="fill:#f83011;fill-rule:evenodd"/><path id="path8448" d="M 0.984,62.016 C 0.984,68.528 6.286,73.827 12.802,73.827 C 19.318,73.827 24.62,68.528 24.62,62.016 C 24.62,55.504 19.318,50.206 12.802,50.206 C 6.286,50.206 0.984,55.504 0.984,62.016 z" style="fill:#f83011;fill-rule:evenodd"/><path id="path8450" d="M 49.054,16.696 C 48.804,16.82 48.618,17.044 48.543,17.312 C 48.467,17.58 48.509,17.867 48.657,18.103 L 58.779,34.162 C 59.036,34.57 59.551,34.732 59.996,34.545 C 63.75,32.958 67.65,32.153 71.586,32.153 C 86.064,32.153 98.693,42.887 100.963,57.122 C 101.039,57.6 101.451,57.951 101.934,57.951 L 121.014,57.98 C 121.292,57.98 121.557,57.863 121.744,57.657 C 121.931,57.451 122.021,57.178 121.995,56.9 C 120.967,46.338 116.471,36.15 109.336,28.215 C 109.014,27.855 108.477,27.783 108.07,28.046 C 105.193,29.904 101.925,30.888 98.623,30.888 C 88.99,30.888 81.154,23.098 81.153,13.524 C 81.154,13.519 81.172,13.158 81.172,13.142 C 81.172,12.665 80.829,12.254 80.356,12.172 C 77.344,11.65 74.394,11.284 71.586,11.284 C 63.875,11.285 56.084,13.222 49.054,16.696 z" style="fill:#f13b00"/><path id="path8452" d="M 49.491,17.578 C 50.527,19.223 58.856,32.437 59.613,33.639 C 63.439,32.022 67.458,31.17 71.587,31.17 C 86.704,31.17 99.583,42.205 101.937,56.968 C 103.373,56.97 119.109,56.993 121.017,56.996 C 120.004,46.605 115.636,36.693 108.606,28.873 C 105.609,30.81 102.191,31.872 98.625,31.872 C 88.449,31.872 80.17,23.641 80.17,13.523 C 80.17,13.523 80.18,13.313 80.189,13.142 C 77.356,12.65 74.471,12.268 71.588,12.268 C 63.928,12.269 56.327,14.199 49.491,17.578 z" style="fill:#f13b00"/><ellipse id="ellipse8454" cx="98" cy="14" rx="12.51" ry="12.5" style="fill:#e00916;fill-rule:evenodd"/><path id="path8456" d="M 86.992,14 C 86.992,20.065 91.93,25 98,25 C 104.07,25 109.008,20.065 109.008,14 C 109.008,7.935 104.07,3 98,3 C 91.93,3 86.992,7.935 86.992,14 z" style="fill:#e56363;fill-rule:evenodd"/><path id="path8458" d="M 120.994,65.733 L 101.916,65.795 C 101.435,65.796 101.024,66.147 100.947,66.621 C 98.646,80.75 86.024,91.405 71.586,91.405 C 67.604,91.405 63.66,90.581 59.864,88.955 C 59.42,88.766 58.906,88.925 58.645,89.33 L 48.442,105.345 C 48.293,105.58 48.25,105.867 48.324,106.136 C 48.398,106.404 48.583,106.629 48.832,106.753 C 55.917,110.3 63.786,112.174 71.586,112.174 C 74.479,112.174 77.492,111.901 80.541,111.36 C 80.969,111.285 81.297,110.936 81.348,110.505 C 82.364,101.73 89.791,95.112 98.623,95.112 C 101.361,95.112 104.147,95.81 106.679,97.13 C 107.064,97.331 107.533,97.257 107.838,96.946 C 115.823,88.803 120.846,78.104 121.978,66.817 C 122.006,66.54 121.915,66.264 121.727,66.057 C 121.539,65.85 121.272,65.732 120.994,65.733 z" style="fill:#d40000"/><ellipse id="ellipse8460" cx="98.486" cy="112.272" rx="12.803" ry="12.728" style="fill:#ff7516;fill-rule:evenodd"/><path id="path8462" d="M 86.844,112.272 C 86.844,118.651 92.067,123.841 98.487,123.841 C 104.907,123.841 110.13,118.651 110.13,112.272 C 110.13,105.893 104.907,100.703 98.487,100.703 C 92.067,100.703 86.844,105.894 86.844,112.272 z" style="fill:#fb9200;fill-rule:evenodd"/><path id="path8464" d="M 49.785,17.67 C 50.008,18.024 59.527,33.127 59.695,33.395 C 63.548,31.791 67.547,30.969 71.586,30.969 C 78.265,30.969 84.635,33.086 90.02,37.08 C 90.155,37.07 103.667,36.099 103.667,36.099 C 103.667,36.099 112.654,35.447 113.294,35.4 C 111.865,33.167 110.392,31.264 108.67,29.337 C 105.639,31.256 102.097,32.173 98.623,32.173 C 88.337,32.173 79.969,23.752 79.969,13.525 C 79.969,13.519 79.973,13.418 79.979,13.318 C 77.094,12.827 74.27,12.47 71.586,12.47 C 64.13,12.469 56.6,14.34 49.785,17.67 z" style="fill:url(#linearGradient8470);fill-rule:evenodd"/><path id="path8466" d="M 24.274,47.396 C 26.599,49.268 28.451,51.682 29.658,54.398 C 34.14,51.488 38.459,49.95 43.889,47.772 C 45.598,44.761 48.481,41.04 51.074,38.755 C 50.915,38.503 41.39,23.39 41.155,23.017 C 33.202,29.201 27.214,37.844 24.274,47.396 z" style="fill:url(#linearGradient8472);fill-rule:evenodd"/><path id="path8468" d="M 23.732,58.691 C 22.313,53.996 17.948,50.566 12.794,50.566 C 6.493,50.566 1.367,55.689 1.367,61.985 C 1.367,66.015 3.469,69.565 6.633,71.597 C 11.926,67.035 17.919,62.755 23.732,58.691 z" style="fill:#f88657;fill-rule:evenodd"/></g></mask></defs><rect style="fill:url(#linearGradient4371);fill-opacity:1;stroke:none;stroke-width:.99999994;stroke-miterlimit:4;stroke-dasharray:none;stroke-dashoffset:0;stroke-opacity:1" id="rect4011" width="47.866" height="47.866" x="-48" y="-47.866" transform="scale(-1,-1)"/><rect style="fill:url(#linearGradient4368);fill-opacity:1;stroke:none;stroke-width:.99999994;stroke-miterlimit:4;stroke-dasharray:none;stroke-dashoffset:0;stroke-opacity:1" id="rect3016" width="45.866" height="45.866" x="1.134" y="1.049"/><path style="opacity:1;fill:#c88cbb;fill-opacity:1;stroke:none;stroke-width:1;stroke-miterlimit:4;stroke-dasharray:none;stroke-dashoffset:0;stroke-opacity:1" id="path4033" d="M -10.007212 23.982693 A 20.014421 20.014421 0 1 1 -50.036055,23.982693 A 20.014421 20.014421 0 1 1 -10.007212 23.982693 z" transform="translate(53.070541,-2.5560054e-2)"/><path style="opacity:1;fill:url(#linearGradient4041);fill-opacity:1;stroke:none;stroke-width:1;stroke-miterlimit:4;stroke-dasharray:none;stroke-dashoffset:0;stroke-opacity:1" id="path4031" d="M -10.007212 23.982693 A 20.014421 20.014421 0 1 1 -50.036055,23.982693 A 20.014421 20.014421 0 1 1 -10.007212 23.982693 z" transform="translate(55.071984,-2.5560054e-2)"/><path style="opacity:1;fill:#fffffa;fill-opacity:1;stroke:none;stroke-width:1;stroke-miterlimit:4;stroke-dasharray:none;stroke-dashoffset:0;stroke-opacity:1;filter:url(#filter4267)" id="path4043" d="M -30.021632 15.643351 A 8.9230967 8.8397036 0 1 1 -47.867826,15.643351 A 8.9230967 8.8397036 0 1 1 -30.021632 15.643351 z" mask="url(#mask4181)" transform="matrix(1.2616822,0,0,1.1226415,62.529072,-5.2595765)"/><g id="g4417" clip-path="url(#clipPath4423)" transform="translate(50.116184,2.1870546e-2)"><path id="path4279" d="M -47.32329,19.312662 L -6.0456207,19.312662" clip-path="none" transform="translate(1.387814,-0.4734046)" style="fill:none;fill-opacity:1;fill-rule:evenodd;stroke:url(#linearGradient4429);stroke-width:1px;stroke-linecap:butt;stroke-linejoin:miter;stroke-opacity:1"/><path id="path4281" d="M -47.32329,22.48125 L -6.045621,22.48125" clip-path="none" transform="translate(1.387814,-0.4734046)" style="fill:#000;fill-opacity:1;fill-rule:evenodd;stroke:url(#linearGradient4431);stroke-width:1px;stroke-linecap:butt;stroke-linejoin:miter;stroke-opacity:1"/><path id="path4283" d="M -47.32329,25.482334 L -6.0456207,25.482334" clip-path="none" transform="translate(1.387814,-0.4734046)" style="fill:#000;fill-opacity:1;fill-rule:evenodd;stroke:url(#linearGradient4433);stroke-width:1px;stroke-linecap:butt;stroke-linejoin:miter;stroke-opacity:1"/><path id="path4285" d="M -47.32329,28.481612 L -6.0456207,28.481612" clip-path="none" transform="translate(1.387814,-0.4734046)" style="fill:#000;fill-opacity:1;fill-rule:evenodd;stroke:url(#linearGradient4435);stroke-width:1px;stroke-linecap:butt;stroke-linejoin:miter;stroke-opacity:1"/></g></svg>